<mxfile host="app.diagrams.net" modified="2024-04-01T11:14:01.262Z" agent="Mozilla/5.0 (Macintosh; Intel Mac OS X 10.15; rv:124.0) Gecko/20100101 Firefox/124.0" etag="ai-LKoxXSuLB1DNCaGpE" version="22.1.18" type="device">
  <diagram name="Seite-1" id="h3fAUjaop2-_kYLDKYsI">
    <mxGraphModel dx="3474" dy="1630" grid="1" gridSize="10" guides="1" tooltips="1" connect="1" arrows="1" fold="1" page="1" pageScale="1" pageWidth="827" pageHeight="1169" math="0" shadow="0">
      <root>
        <mxCell id="0" />
        <mxCell id="1" parent="0" />
        <mxCell id="o58t7d3tN6w-42Xv3fXU-2" value="MasterWindow" style="swimlane;fontStyle=1;align=center;verticalAlign=top;childLayout=stackLayout;horizontal=1;startSize=26;horizontalStack=0;resizeParent=1;resizeParentMax=0;resizeLast=0;collapsible=1;marginBottom=0;whiteSpace=wrap;html=1;" parent="1" vertex="1">
          <mxGeometry x="360" y="350" width="240" height="86" as="geometry" />
        </mxCell>
        <mxCell id="o58t7d3tN6w-42Xv3fXU-3" value="+ stacked_widjet: QStackedWidjet" style="text;strokeColor=none;fillColor=none;align=left;verticalAlign=top;spacingLeft=4;spacingRight=4;overflow=hidden;rotatable=0;points=[[0,0.5],[1,0.5]];portConstraint=eastwest;whiteSpace=wrap;html=1;" parent="o58t7d3tN6w-42Xv3fXU-2" vertex="1">
          <mxGeometry y="26" width="240" height="26" as="geometry" />
        </mxCell>
        <mxCell id="o58t7d3tN6w-42Xv3fXU-4" value="" style="line;strokeWidth=1;fillColor=none;align=left;verticalAlign=middle;spacingTop=-1;spacingLeft=3;spacingRight=3;rotatable=0;labelPosition=right;points=[];portConstraint=eastwest;strokeColor=inherit;" parent="o58t7d3tN6w-42Xv3fXU-2" vertex="1">
          <mxGeometry y="52" width="240" height="8" as="geometry" />
        </mxCell>
        <mxCell id="o58t7d3tN6w-42Xv3fXU-5" value="+ switch_to(window: QWidjet): void" style="text;strokeColor=none;fillColor=none;align=left;verticalAlign=top;spacingLeft=4;spacingRight=4;overflow=hidden;rotatable=0;points=[[0,0.5],[1,0.5]];portConstraint=eastwest;whiteSpace=wrap;html=1;" parent="o58t7d3tN6w-42Xv3fXU-2" vertex="1">
          <mxGeometry y="60" width="240" height="26" as="geometry" />
        </mxCell>
        <mxCell id="o58t7d3tN6w-42Xv3fXU-49" style="edgeStyle=orthogonalEdgeStyle;rounded=0;orthogonalLoop=1;jettySize=auto;html=1;exitX=0;exitY=0.5;exitDx=0;exitDy=0;entryX=1;entryY=0.25;entryDx=0;entryDy=0;" parent="1" source="o58t7d3tN6w-42Xv3fXU-9" target="o58t7d3tN6w-42Xv3fXU-2" edge="1">
          <mxGeometry relative="1" as="geometry" />
        </mxCell>
        <mxCell id="o58t7d3tN6w-42Xv3fXU-50" value="master window" style="edgeLabel;html=1;align=center;verticalAlign=middle;resizable=0;points=[];" parent="o58t7d3tN6w-42Xv3fXU-49" vertex="1" connectable="0">
          <mxGeometry x="-0.2335" relative="1" as="geometry">
            <mxPoint x="16" y="-15" as="offset" />
          </mxGeometry>
        </mxCell>
        <mxCell id="o58t7d3tN6w-42Xv3fXU-9" value="SelectCenterWindow" style="swimlane;fontStyle=1;align=center;verticalAlign=top;childLayout=stackLayout;horizontal=1;startSize=26;horizontalStack=0;resizeParent=1;resizeParentMax=0;resizeLast=0;collapsible=1;marginBottom=0;whiteSpace=wrap;html=1;" parent="1" vertex="1" collapsed="1">
          <mxGeometry x="790" y="350" width="160" height="30" as="geometry">
            <mxRectangle x="400" y="320" width="160" height="34" as="alternateBounds" />
          </mxGeometry>
        </mxCell>
        <mxCell id="o58t7d3tN6w-42Xv3fXU-11" value="" style="line;strokeWidth=1;fillColor=none;align=left;verticalAlign=middle;spacingTop=-1;spacingLeft=3;spacingRight=3;rotatable=0;labelPosition=right;points=[];portConstraint=eastwest;strokeColor=inherit;" parent="o58t7d3tN6w-42Xv3fXU-9" vertex="1">
          <mxGeometry y="26" width="160" height="8" as="geometry" />
        </mxCell>
        <mxCell id="o58t7d3tN6w-42Xv3fXU-17" style="edgeStyle=orthogonalEdgeStyle;rounded=0;orthogonalLoop=1;jettySize=auto;html=1;entryX=1;entryY=0.5;entryDx=0;entryDy=0;" parent="1" source="o58t7d3tN6w-42Xv3fXU-15" target="o58t7d3tN6w-42Xv3fXU-5" edge="1">
          <mxGeometry relative="1" as="geometry" />
        </mxCell>
        <mxCell id="o58t7d3tN6w-42Xv3fXU-22" value="master_window" style="edgeLabel;html=1;align=center;verticalAlign=middle;resizable=0;points=[];rotation=90;" parent="o58t7d3tN6w-42Xv3fXU-17" vertex="1" connectable="0">
          <mxGeometry x="-0.2668" relative="1" as="geometry">
            <mxPoint x="10" y="9" as="offset" />
          </mxGeometry>
        </mxCell>
        <mxCell id="o58t7d3tN6w-42Xv3fXU-63" style="edgeStyle=orthogonalEdgeStyle;rounded=0;orthogonalLoop=1;jettySize=auto;html=1;exitX=0.5;exitY=1;exitDx=0;exitDy=0;entryX=0.25;entryY=0;entryDx=0;entryDy=0;" parent="1" source="o58t7d3tN6w-42Xv3fXU-15" target="o58t7d3tN6w-42Xv3fXU-18" edge="1">
          <mxGeometry relative="1" as="geometry" />
        </mxCell>
        <mxCell id="o58t7d3tN6w-42Xv3fXU-65" value="patient_data" style="edgeLabel;html=1;align=center;verticalAlign=middle;resizable=0;points=[];" parent="o58t7d3tN6w-42Xv3fXU-63" vertex="1" connectable="0">
          <mxGeometry x="-0.0422" y="2" relative="1" as="geometry">
            <mxPoint as="offset" />
          </mxGeometry>
        </mxCell>
        <mxCell id="o58t7d3tN6w-42Xv3fXU-15" value="VisualisationWindow" style="swimlane;fontStyle=1;align=center;verticalAlign=top;childLayout=stackLayout;horizontal=1;startSize=26;horizontalStack=0;resizeParent=1;resizeParentMax=0;resizeLast=0;collapsible=1;marginBottom=0;whiteSpace=wrap;html=1;" parent="1" vertex="1" collapsed="1">
          <mxGeometry x="620" y="560" width="160" height="30" as="geometry">
            <mxRectangle x="400" y="320" width="160" height="34" as="alternateBounds" />
          </mxGeometry>
        </mxCell>
        <mxCell id="o58t7d3tN6w-42Xv3fXU-16" value="" style="line;strokeWidth=1;fillColor=none;align=left;verticalAlign=middle;spacingTop=-1;spacingLeft=3;spacingRight=3;rotatable=0;labelPosition=right;points=[];portConstraint=eastwest;strokeColor=inherit;" parent="o58t7d3tN6w-42Xv3fXU-15" vertex="1">
          <mxGeometry y="26" width="160" height="8" as="geometry" />
        </mxCell>
        <mxCell id="o58t7d3tN6w-42Xv3fXU-18" value="PatientData" style="swimlane;fontStyle=1;align=center;verticalAlign=top;childLayout=stackLayout;horizontal=1;startSize=26;horizontalStack=0;resizeParent=1;resizeParentMax=0;resizeLast=0;collapsible=1;marginBottom=0;whiteSpace=wrap;html=1;" parent="1" vertex="1" collapsed="1">
          <mxGeometry x="730" y="640" width="160" height="30" as="geometry">
            <mxRectangle x="400" y="320" width="160" height="34" as="alternateBounds" />
          </mxGeometry>
        </mxCell>
        <mxCell id="o58t7d3tN6w-42Xv3fXU-19" value="" style="line;strokeWidth=1;fillColor=none;align=left;verticalAlign=middle;spacingTop=-1;spacingLeft=3;spacingRight=3;rotatable=0;labelPosition=right;points=[];portConstraint=eastwest;strokeColor=inherit;" parent="o58t7d3tN6w-42Xv3fXU-18" vertex="1">
          <mxGeometry y="26" width="160" height="8" as="geometry" />
        </mxCell>
        <mxCell id="o58t7d3tN6w-42Xv3fXU-23" value="InfoWindow" style="swimlane;fontStyle=1;align=center;verticalAlign=top;childLayout=stackLayout;horizontal=1;startSize=26;horizontalStack=0;resizeParent=1;resizeParentMax=0;resizeLast=0;collapsible=1;marginBottom=0;whiteSpace=wrap;html=1;" parent="1" vertex="1" collapsed="1">
          <mxGeometry x="450" y="260" width="160" height="30" as="geometry">
            <mxRectangle x="400" y="320" width="160" height="34" as="alternateBounds" />
          </mxGeometry>
        </mxCell>
        <mxCell id="o58t7d3tN6w-42Xv3fXU-24" value="" style="line;strokeWidth=1;fillColor=none;align=left;verticalAlign=middle;spacingTop=-1;spacingLeft=3;spacingRight=3;rotatable=0;labelPosition=right;points=[];portConstraint=eastwest;strokeColor=inherit;" parent="o58t7d3tN6w-42Xv3fXU-23" vertex="1">
          <mxGeometry y="26" width="160" height="8" as="geometry" />
        </mxCell>
        <mxCell id="o58t7d3tN6w-42Xv3fXU-37" value="QDIalog" style="html=1;whiteSpace=wrap;fontStyle=1" parent="1" vertex="1">
          <mxGeometry x="475" y="160" width="110" height="50" as="geometry" />
        </mxCell>
        <mxCell id="o58t7d3tN6w-42Xv3fXU-38" value="" style="endArrow=block;endSize=12;endFill=0;html=1;rounded=0;entryX=0.5;entryY=1;entryDx=0;entryDy=0;exitX=0.5;exitY=0;exitDx=0;exitDy=0;" parent="1" source="o58t7d3tN6w-42Xv3fXU-23" target="o58t7d3tN6w-42Xv3fXU-37" edge="1">
          <mxGeometry width="160" relative="1" as="geometry">
            <mxPoint x="655" y="270" as="sourcePoint" />
            <mxPoint x="815" y="270" as="targetPoint" />
          </mxGeometry>
        </mxCell>
        <mxCell id="o58t7d3tN6w-42Xv3fXU-59" style="rounded=0;orthogonalLoop=1;jettySize=auto;html=1;exitX=0.5;exitY=0;exitDx=0;exitDy=0;entryX=1;entryY=0.5;entryDx=0;entryDy=0;" parent="1" source="o58t7d3tN6w-42Xv3fXU-53" target="o58t7d3tN6w-42Xv3fXU-3" edge="1">
          <mxGeometry relative="1" as="geometry">
            <mxPoint x="749.9999999999998" y="400.0000000000001" as="targetPoint" />
            <Array as="points">
              <mxPoint x="890" y="390" />
            </Array>
          </mxGeometry>
        </mxCell>
        <mxCell id="o58t7d3tN6w-42Xv3fXU-61" value="master_window" style="edgeLabel;html=1;align=center;verticalAlign=middle;resizable=0;points=[];rotation=90;" parent="o58t7d3tN6w-42Xv3fXU-59" vertex="1" connectable="0">
          <mxGeometry x="-0.6005" y="1" relative="1" as="geometry">
            <mxPoint x="11" as="offset" />
          </mxGeometry>
        </mxCell>
        <mxCell id="o58t7d3tN6w-42Xv3fXU-64" style="edgeStyle=orthogonalEdgeStyle;rounded=0;orthogonalLoop=1;jettySize=auto;html=1;exitX=0.5;exitY=1;exitDx=0;exitDy=0;entryX=0.5;entryY=0;entryDx=0;entryDy=0;" parent="1" source="o58t7d3tN6w-42Xv3fXU-53" target="o58t7d3tN6w-42Xv3fXU-18" edge="1">
          <mxGeometry relative="1" as="geometry" />
        </mxCell>
        <mxCell id="o58t7d3tN6w-42Xv3fXU-66" value="patient_data" style="edgeLabel;html=1;align=center;verticalAlign=middle;resizable=0;points=[];" parent="o58t7d3tN6w-42Xv3fXU-64" vertex="1" connectable="0">
          <mxGeometry x="0.1611" y="1" relative="1" as="geometry">
            <mxPoint x="10" as="offset" />
          </mxGeometry>
        </mxCell>
        <mxCell id="o58t7d3tN6w-42Xv3fXU-53" value="&lt;div&gt;FileSelectionWindow&lt;/div&gt;&lt;div&gt;&lt;br&gt;&lt;/div&gt;" style="swimlane;fontStyle=1;align=center;verticalAlign=top;childLayout=stackLayout;horizontal=1;startSize=26;horizontalStack=0;resizeParent=1;resizeParentMax=0;resizeLast=0;collapsible=1;marginBottom=0;whiteSpace=wrap;html=1;" parent="1" vertex="1" collapsed="1">
          <mxGeometry x="810" y="560" width="160" height="30" as="geometry">
            <mxRectangle x="400" y="320" width="160" height="34" as="alternateBounds" />
          </mxGeometry>
        </mxCell>
        <mxCell id="o58t7d3tN6w-42Xv3fXU-54" value="" style="line;strokeWidth=1;fillColor=none;align=left;verticalAlign=middle;spacingTop=-1;spacingLeft=3;spacingRight=3;rotatable=0;labelPosition=right;points=[];portConstraint=eastwest;strokeColor=inherit;" parent="o58t7d3tN6w-42Xv3fXU-53" vertex="1">
          <mxGeometry y="26" width="160" height="8" as="geometry" />
        </mxCell>
        <mxCell id="o58t7d3tN6w-42Xv3fXU-71" style="edgeStyle=orthogonalEdgeStyle;rounded=0;orthogonalLoop=1;jettySize=auto;html=1;exitX=0.5;exitY=0;exitDx=0;exitDy=0;entryX=0;entryY=0.5;entryDx=0;entryDy=0;" parent="1" source="o58t7d3tN6w-42Xv3fXU-67" target="o58t7d3tN6w-42Xv3fXU-5" edge="1">
          <mxGeometry relative="1" as="geometry" />
        </mxCell>
        <mxCell id="o58t7d3tN6w-42Xv3fXU-72" value="master_window" style="edgeLabel;html=1;align=center;verticalAlign=middle;resizable=0;points=[];" parent="o58t7d3tN6w-42Xv3fXU-71" vertex="1" connectable="0">
          <mxGeometry x="-0.24" y="2" relative="1" as="geometry">
            <mxPoint y="-10" as="offset" />
          </mxGeometry>
        </mxCell>
        <mxCell id="o58t7d3tN6w-42Xv3fXU-73" style="edgeStyle=orthogonalEdgeStyle;rounded=0;orthogonalLoop=1;jettySize=auto;html=1;entryX=0;entryY=0.25;entryDx=0;entryDy=0;" parent="1" source="o58t7d3tN6w-42Xv3fXU-67" target="o58t7d3tN6w-42Xv3fXU-18" edge="1">
          <mxGeometry relative="1" as="geometry">
            <Array as="points">
              <mxPoint x="510" y="648" />
            </Array>
          </mxGeometry>
        </mxCell>
        <mxCell id="o58t7d3tN6w-42Xv3fXU-74" value="patient_data" style="edgeLabel;html=1;align=center;verticalAlign=middle;resizable=0;points=[];" parent="o58t7d3tN6w-42Xv3fXU-73" vertex="1" connectable="0">
          <mxGeometry x="-0.1524" y="1" relative="1" as="geometry">
            <mxPoint as="offset" />
          </mxGeometry>
        </mxCell>
        <mxCell id="o58t7d3tN6w-42Xv3fXU-77" style="edgeStyle=orthogonalEdgeStyle;rounded=0;orthogonalLoop=1;jettySize=auto;html=1;exitX=0.25;exitY=1;exitDx=0;exitDy=0;entryX=0;entryY=0.25;entryDx=0;entryDy=0;" parent="1" source="o58t7d3tN6w-42Xv3fXU-67" target="o58t7d3tN6w-42Xv3fXU-75" edge="1">
          <mxGeometry relative="1" as="geometry" />
        </mxCell>
        <mxCell id="o58t7d3tN6w-42Xv3fXU-78" value="&lt;div&gt;visit&lt;/div&gt;" style="edgeLabel;html=1;align=center;verticalAlign=middle;resizable=0;points=[];" parent="o58t7d3tN6w-42Xv3fXU-77" vertex="1" connectable="0">
          <mxGeometry x="0.2604" y="-3" relative="1" as="geometry">
            <mxPoint y="-10" as="offset" />
          </mxGeometry>
        </mxCell>
        <mxCell id="o58t7d3tN6w-42Xv3fXU-67" value="EndoscopySelectionWindon" style="swimlane;fontStyle=1;align=center;verticalAlign=top;childLayout=stackLayout;horizontal=1;startSize=26;horizontalStack=0;resizeParent=1;resizeParentMax=0;resizeLast=0;collapsible=1;marginBottom=0;whiteSpace=wrap;html=1;" parent="1" vertex="1" collapsed="1">
          <mxGeometry x="420" y="560" width="180" height="30" as="geometry">
            <mxRectangle x="400" y="320" width="160" height="34" as="alternateBounds" />
          </mxGeometry>
        </mxCell>
        <mxCell id="o58t7d3tN6w-42Xv3fXU-68" value="" style="line;strokeWidth=1;fillColor=none;align=left;verticalAlign=middle;spacingTop=-1;spacingLeft=3;spacingRight=3;rotatable=0;labelPosition=right;points=[];portConstraint=eastwest;strokeColor=inherit;" parent="o58t7d3tN6w-42Xv3fXU-67" vertex="1">
          <mxGeometry y="26" width="160" height="8" as="geometry" />
        </mxCell>
        <mxCell id="o58t7d3tN6w-42Xv3fXU-75" value="VisitData" style="swimlane;fontStyle=1;align=center;verticalAlign=top;childLayout=stackLayout;horizontal=1;startSize=26;horizontalStack=0;resizeParent=1;resizeParentMax=0;resizeLast=0;collapsible=1;marginBottom=0;whiteSpace=wrap;html=1;" parent="1" vertex="1" collapsed="1">
          <mxGeometry x="730" y="724.5" width="160" height="30" as="geometry">
            <mxRectangle x="400" y="320" width="160" height="34" as="alternateBounds" />
          </mxGeometry>
        </mxCell>
        <mxCell id="o58t7d3tN6w-42Xv3fXU-76" value="" style="line;strokeWidth=1;fillColor=none;align=left;verticalAlign=middle;spacingTop=-1;spacingLeft=3;spacingRight=3;rotatable=0;labelPosition=right;points=[];portConstraint=eastwest;strokeColor=inherit;" parent="o58t7d3tN6w-42Xv3fXU-75" vertex="1">
          <mxGeometry y="26" width="160" height="8" as="geometry" />
        </mxCell>
        <mxCell id="o58t7d3tN6w-42Xv3fXU-82" style="edgeStyle=orthogonalEdgeStyle;rounded=0;orthogonalLoop=1;jettySize=auto;html=1;exitX=0.5;exitY=1;exitDx=0;exitDy=0;entryX=0;entryY=0.5;entryDx=0;entryDy=0;" parent="1" source="o58t7d3tN6w-42Xv3fXU-79" target="o58t7d3tN6w-42Xv3fXU-18" edge="1">
          <mxGeometry relative="1" as="geometry" />
        </mxCell>
        <mxCell id="o58t7d3tN6w-42Xv3fXU-83" value="patient_data" style="edgeLabel;html=1;align=center;verticalAlign=middle;resizable=0;points=[];" parent="o58t7d3tN6w-42Xv3fXU-82" vertex="1" connectable="0">
          <mxGeometry x="-0.4492" y="-4" relative="1" as="geometry">
            <mxPoint as="offset" />
          </mxGeometry>
        </mxCell>
        <mxCell id="o58t7d3tN6w-42Xv3fXU-84" style="edgeStyle=orthogonalEdgeStyle;rounded=0;orthogonalLoop=1;jettySize=auto;html=1;exitX=0.25;exitY=1;exitDx=0;exitDy=0;entryX=0;entryY=0.5;entryDx=0;entryDy=0;" parent="1" source="o58t7d3tN6w-42Xv3fXU-79" target="o58t7d3tN6w-42Xv3fXU-75" edge="1">
          <mxGeometry relative="1" as="geometry" />
        </mxCell>
        <mxCell id="o58t7d3tN6w-42Xv3fXU-85" value="visit" style="edgeLabel;html=1;align=center;verticalAlign=middle;resizable=0;points=[];" parent="o58t7d3tN6w-42Xv3fXU-84" vertex="1" connectable="0">
          <mxGeometry x="-0.1912" y="1" relative="1" as="geometry">
            <mxPoint x="2" as="offset" />
          </mxGeometry>
        </mxCell>
        <mxCell id="o58t7d3tN6w-42Xv3fXU-86" style="edgeStyle=orthogonalEdgeStyle;rounded=0;orthogonalLoop=1;jettySize=auto;html=1;exitX=0.25;exitY=0;exitDx=0;exitDy=0;" parent="1" source="o58t7d3tN6w-42Xv3fXU-79" target="o58t7d3tN6w-42Xv3fXU-3" edge="1">
          <mxGeometry relative="1" as="geometry" />
        </mxCell>
        <mxCell id="o58t7d3tN6w-42Xv3fXU-87" value="master_window" style="edgeLabel;html=1;align=center;verticalAlign=middle;resizable=0;points=[];rotation=90;" parent="o58t7d3tN6w-42Xv3fXU-86" vertex="1" connectable="0">
          <mxGeometry x="-0.2456" y="-4" relative="1" as="geometry">
            <mxPoint x="11" y="13" as="offset" />
          </mxGeometry>
        </mxCell>
        <mxCell id="o58t7d3tN6w-42Xv3fXU-79" value="XrayRegionSelectionWindow" style="swimlane;fontStyle=1;align=center;verticalAlign=top;childLayout=stackLayout;horizontal=1;startSize=26;horizontalStack=0;resizeParent=1;resizeParentMax=0;resizeLast=0;collapsible=1;marginBottom=0;whiteSpace=wrap;html=1;" parent="1" vertex="1" collapsed="1">
          <mxGeometry x="210" y="560" width="180" height="30" as="geometry">
            <mxRectangle x="400" y="320" width="160" height="34" as="alternateBounds" />
          </mxGeometry>
        </mxCell>
        <mxCell id="o58t7d3tN6w-42Xv3fXU-80" value="" style="line;strokeWidth=1;fillColor=none;align=left;verticalAlign=middle;spacingTop=-1;spacingLeft=3;spacingRight=3;rotatable=0;labelPosition=right;points=[];portConstraint=eastwest;strokeColor=inherit;" parent="o58t7d3tN6w-42Xv3fXU-79" vertex="1">
          <mxGeometry y="26" width="160" height="8" as="geometry" />
        </mxCell>
        <mxCell id="o58t7d3tN6w-42Xv3fXU-90" style="edgeStyle=orthogonalEdgeStyle;rounded=0;orthogonalLoop=1;jettySize=auto;html=1;exitX=0.5;exitY=0;exitDx=0;exitDy=0;entryX=0;entryY=0;entryDx=0;entryDy=0;" parent="1" source="o58t7d3tN6w-42Xv3fXU-88" target="o58t7d3tN6w-42Xv3fXU-2" edge="1">
          <mxGeometry relative="1" as="geometry" />
        </mxCell>
        <mxCell id="o58t7d3tN6w-42Xv3fXU-91" value="master_window" style="edgeLabel;html=1;align=center;verticalAlign=middle;resizable=0;points=[];" parent="o58t7d3tN6w-42Xv3fXU-90" vertex="1" connectable="0">
          <mxGeometry x="-0.0682" relative="1" as="geometry">
            <mxPoint x="50" y="-6" as="offset" />
          </mxGeometry>
        </mxCell>
        <mxCell id="o58t7d3tN6w-42Xv3fXU-92" style="edgeStyle=orthogonalEdgeStyle;rounded=0;orthogonalLoop=1;jettySize=auto;html=1;exitX=0.5;exitY=1;exitDx=0;exitDy=0;entryX=0;entryY=0.75;entryDx=0;entryDy=0;" parent="1" source="o58t7d3tN6w-42Xv3fXU-88" target="o58t7d3tN6w-42Xv3fXU-18" edge="1">
          <mxGeometry relative="1" as="geometry" />
        </mxCell>
        <mxCell id="o58t7d3tN6w-42Xv3fXU-93" value="patient_data" style="edgeLabel;html=1;align=center;verticalAlign=middle;resizable=0;points=[];" parent="o58t7d3tN6w-42Xv3fXU-92" vertex="1" connectable="0">
          <mxGeometry x="-0.5848" y="3" relative="1" as="geometry">
            <mxPoint as="offset" />
          </mxGeometry>
        </mxCell>
        <mxCell id="o58t7d3tN6w-42Xv3fXU-94" style="edgeStyle=orthogonalEdgeStyle;rounded=0;orthogonalLoop=1;jettySize=auto;html=1;exitX=0.25;exitY=1;exitDx=0;exitDy=0;entryX=0;entryY=0.75;entryDx=0;entryDy=0;" parent="1" source="o58t7d3tN6w-42Xv3fXU-88" target="o58t7d3tN6w-42Xv3fXU-75" edge="1">
          <mxGeometry relative="1" as="geometry" />
        </mxCell>
        <mxCell id="o58t7d3tN6w-42Xv3fXU-95" value="visit" style="edgeLabel;html=1;align=center;verticalAlign=middle;resizable=0;points=[];" parent="o58t7d3tN6w-42Xv3fXU-94" vertex="1" connectable="0">
          <mxGeometry x="-0.4653" y="-1" relative="1" as="geometry">
            <mxPoint as="offset" />
          </mxGeometry>
        </mxCell>
        <mxCell id="o58t7d3tN6w-42Xv3fXU-88" value="ManageXrayWindows" style="swimlane;fontStyle=1;align=center;verticalAlign=top;childLayout=stackLayout;horizontal=1;startSize=26;horizontalStack=0;resizeParent=1;resizeParentMax=0;resizeLast=0;collapsible=1;marginBottom=0;whiteSpace=wrap;html=1;" parent="1" vertex="1" collapsed="1">
          <mxGeometry x="10" y="560" width="180" height="30" as="geometry">
            <mxRectangle x="400" y="320" width="160" height="34" as="alternateBounds" />
          </mxGeometry>
        </mxCell>
        <mxCell id="o58t7d3tN6w-42Xv3fXU-89" value="" style="line;strokeWidth=1;fillColor=none;align=left;verticalAlign=middle;spacingTop=-1;spacingLeft=3;spacingRight=3;rotatable=0;labelPosition=right;points=[];portConstraint=eastwest;strokeColor=inherit;" parent="o58t7d3tN6w-42Xv3fXU-88" vertex="1">
          <mxGeometry y="26" width="160" height="8" as="geometry" />
        </mxCell>
        <mxCell id="o58t7d3tN6w-42Xv3fXU-98" value="" style="endArrow=open;html=1;endSize=12;startArrow=diamondThin;startSize=14;startFill=1;edgeStyle=orthogonalEdgeStyle;align=left;verticalAlign=bottom;rounded=0;exitX=0.75;exitY=0;exitDx=0;exitDy=0;entryX=0.5;entryY=0;entryDx=0;entryDy=0;" parent="1" source="o58t7d3tN6w-42Xv3fXU-88" target="o58t7d3tN6w-42Xv3fXU-79" edge="1">
          <mxGeometry x="-1" y="3" relative="1" as="geometry">
            <mxPoint x="230" y="610" as="sourcePoint" />
            <mxPoint x="390" y="640" as="targetPoint" />
            <Array as="points">
              <mxPoint x="145" y="520" />
              <mxPoint x="300" y="520" />
            </Array>
          </mxGeometry>
        </mxCell>
        <mxCell id="o58t7d3tN6w-42Xv3fXU-101" value="*" style="edgeLabel;html=1;align=center;verticalAlign=middle;resizable=0;points=[];fontSize=18;" parent="o58t7d3tN6w-42Xv3fXU-98" vertex="1" connectable="0">
          <mxGeometry x="-0.8956" relative="1" as="geometry">
            <mxPoint x="15" as="offset" />
          </mxGeometry>
        </mxCell>
        <mxCell id="o58t7d3tN6w-42Xv3fXU-104" style="edgeStyle=orthogonalEdgeStyle;rounded=0;orthogonalLoop=1;jettySize=auto;html=1;exitX=0.5;exitY=0;exitDx=0;exitDy=0;entryX=0;entryY=0.25;entryDx=0;entryDy=0;" parent="1" source="o58t7d3tN6w-42Xv3fXU-102" target="o58t7d3tN6w-42Xv3fXU-2" edge="1">
          <mxGeometry relative="1" as="geometry">
            <mxPoint x="60" y="370" as="targetPoint" />
          </mxGeometry>
        </mxCell>
        <mxCell id="o58t7d3tN6w-42Xv3fXU-105" value="master_window" style="edgeLabel;html=1;align=center;verticalAlign=middle;resizable=0;points=[];" parent="o58t7d3tN6w-42Xv3fXU-104" vertex="1" connectable="0">
          <mxGeometry x="-0.0051" y="-2" relative="1" as="geometry">
            <mxPoint as="offset" />
          </mxGeometry>
        </mxCell>
        <mxCell id="o58t7d3tN6w-42Xv3fXU-106" style="edgeStyle=orthogonalEdgeStyle;rounded=0;orthogonalLoop=1;jettySize=auto;html=1;exitX=0.5;exitY=1;exitDx=0;exitDy=0;entryX=0;entryY=1;entryDx=0;entryDy=0;" parent="1" source="o58t7d3tN6w-42Xv3fXU-102" target="o58t7d3tN6w-42Xv3fXU-18" edge="1">
          <mxGeometry relative="1" as="geometry" />
        </mxCell>
        <mxCell id="o58t7d3tN6w-42Xv3fXU-107" value="patient_data" style="edgeLabel;html=1;align=center;verticalAlign=middle;resizable=0;points=[];" parent="o58t7d3tN6w-42Xv3fXU-106" vertex="1" connectable="0">
          <mxGeometry x="-0.5948" y="-2" relative="1" as="geometry">
            <mxPoint x="1" as="offset" />
          </mxGeometry>
        </mxCell>
        <mxCell id="o58t7d3tN6w-42Xv3fXU-102" value="PreviousTherapiesWIndow" style="swimlane;fontStyle=1;align=center;verticalAlign=top;childLayout=stackLayout;horizontal=1;startSize=26;horizontalStack=0;resizeParent=1;resizeParentMax=0;resizeLast=0;collapsible=1;marginBottom=0;whiteSpace=wrap;html=1;" parent="1" vertex="1" collapsed="1">
          <mxGeometry x="-223" y="560" width="180" height="30" as="geometry">
            <mxRectangle x="400" y="320" width="160" height="34" as="alternateBounds" />
          </mxGeometry>
        </mxCell>
        <mxCell id="o58t7d3tN6w-42Xv3fXU-103" value="" style="line;strokeWidth=1;fillColor=none;align=left;verticalAlign=middle;spacingTop=-1;spacingLeft=3;spacingRight=3;rotatable=0;labelPosition=right;points=[];portConstraint=eastwest;strokeColor=inherit;" parent="o58t7d3tN6w-42Xv3fXU-102" vertex="1">
          <mxGeometry y="26" width="160" height="8" as="geometry" />
        </mxCell>
        <mxCell id="o58t7d3tN6w-42Xv3fXU-110" style="edgeStyle=orthogonalEdgeStyle;rounded=0;orthogonalLoop=1;jettySize=auto;html=1;exitX=0.5;exitY=0;exitDx=0;exitDy=0;entryX=0.25;entryY=0;entryDx=0;entryDy=0;" parent="1" source="o58t7d3tN6w-42Xv3fXU-108" target="o58t7d3tN6w-42Xv3fXU-2" edge="1">
          <mxGeometry relative="1" as="geometry">
            <Array as="points">
              <mxPoint x="-350" y="310" />
              <mxPoint x="420" y="310" />
            </Array>
          </mxGeometry>
        </mxCell>
        <mxCell id="o58t7d3tN6w-42Xv3fXU-111" value="master_window" style="edgeLabel;html=1;align=center;verticalAlign=middle;resizable=0;points=[];" parent="o58t7d3tN6w-42Xv3fXU-110" vertex="1" connectable="0">
          <mxGeometry x="0.0236" y="1" relative="1" as="geometry">
            <mxPoint as="offset" />
          </mxGeometry>
        </mxCell>
        <mxCell id="o58t7d3tN6w-42Xv3fXU-112" style="edgeStyle=orthogonalEdgeStyle;rounded=0;orthogonalLoop=1;jettySize=auto;html=1;exitX=0.5;exitY=1;exitDx=0;exitDy=0;entryX=0.25;entryY=1;entryDx=0;entryDy=0;" parent="1" source="o58t7d3tN6w-42Xv3fXU-108" target="o58t7d3tN6w-42Xv3fXU-18" edge="1">
          <mxGeometry relative="1" as="geometry">
            <Array as="points">
              <mxPoint x="-350" y="710" />
              <mxPoint x="770" y="710" />
            </Array>
          </mxGeometry>
        </mxCell>
        <mxCell id="o58t7d3tN6w-42Xv3fXU-113" value="patient_data" style="edgeLabel;html=1;align=center;verticalAlign=middle;resizable=0;points=[];" parent="o58t7d3tN6w-42Xv3fXU-112" vertex="1" connectable="0">
          <mxGeometry x="-0.5828" y="-2" relative="1" as="geometry">
            <mxPoint x="-1" as="offset" />
          </mxGeometry>
        </mxCell>
        <mxCell id="o58t7d3tN6w-42Xv3fXU-114" style="edgeStyle=orthogonalEdgeStyle;rounded=0;orthogonalLoop=1;jettySize=auto;html=1;exitX=0.25;exitY=1;exitDx=0;exitDy=0;entryX=0.25;entryY=1;entryDx=0;entryDy=0;" parent="1" source="o58t7d3tN6w-42Xv3fXU-108" target="o58t7d3tN6w-42Xv3fXU-75" edge="1">
          <mxGeometry relative="1" as="geometry" />
        </mxCell>
        <mxCell id="o58t7d3tN6w-42Xv3fXU-115" value="visit" style="edgeLabel;html=1;align=center;verticalAlign=middle;resizable=0;points=[];" parent="o58t7d3tN6w-42Xv3fXU-114" vertex="1" connectable="0">
          <mxGeometry x="-0.4862" y="2" relative="1" as="geometry">
            <mxPoint x="1" as="offset" />
          </mxGeometry>
        </mxCell>
        <mxCell id="o58t7d3tN6w-42Xv3fXU-108" value="PositionSelectionWindow" style="swimlane;fontStyle=1;align=center;verticalAlign=top;childLayout=stackLayout;horizontal=1;startSize=26;horizontalStack=0;resizeParent=1;resizeParentMax=0;resizeLast=0;collapsible=1;marginBottom=0;whiteSpace=wrap;html=1;" parent="1" vertex="1" collapsed="1">
          <mxGeometry x="-440" y="560" width="180" height="30" as="geometry">
            <mxRectangle x="400" y="320" width="160" height="34" as="alternateBounds" />
          </mxGeometry>
        </mxCell>
        <mxCell id="o58t7d3tN6w-42Xv3fXU-109" value="" style="line;strokeWidth=1;fillColor=none;align=left;verticalAlign=middle;spacingTop=-1;spacingLeft=3;spacingRight=3;rotatable=0;labelPosition=right;points=[];portConstraint=eastwest;strokeColor=inherit;" parent="o58t7d3tN6w-42Xv3fXU-108" vertex="1">
          <mxGeometry y="26" width="160" height="8" as="geometry" />
        </mxCell>
        <mxCell id="o58t7d3tN6w-42Xv3fXU-117" value="" style="endArrow=open;html=1;endSize=12;startArrow=diamondThin;startSize=14;startFill=1;edgeStyle=orthogonalEdgeStyle;align=left;verticalAlign=bottom;rounded=0;exitX=0.5;exitY=1;exitDx=0;exitDy=0;" parent="1" source="o58t7d3tN6w-42Xv3fXU-18" target="o58t7d3tN6w-42Xv3fXU-75" edge="1">
          <mxGeometry x="-1" y="3" relative="1" as="geometry">
            <mxPoint x="640" y="690" as="sourcePoint" />
            <mxPoint x="800" y="690" as="targetPoint" />
          </mxGeometry>
        </mxCell>
        <mxCell id="o58t7d3tN6w-42Xv3fXU-118" value="&lt;font style=&quot;font-size: 18px;&quot;&gt;*&lt;/font&gt;" style="edgeLabel;html=1;align=center;verticalAlign=middle;resizable=0;points=[];" parent="o58t7d3tN6w-42Xv3fXU-117" vertex="1" connectable="0">
          <mxGeometry x="-0.5442" y="2" relative="1" as="geometry">
            <mxPoint x="8" y="8" as="offset" />
          </mxGeometry>
        </mxCell>
        <mxCell id="kVOWbZ__sYHGqdiRXJQ1-14" style="edgeStyle=orthogonalEdgeStyle;rounded=0;orthogonalLoop=1;jettySize=auto;html=1;exitX=0.5;exitY=1;exitDx=0;exitDy=0;entryX=1;entryY=0.25;entryDx=0;entryDy=0;" edge="1" parent="1" source="kVOWbZ__sYHGqdiRXJQ1-1" target="kVOWbZ__sYHGqdiRXJQ1-5">
          <mxGeometry relative="1" as="geometry" />
        </mxCell>
        <mxCell id="kVOWbZ__sYHGqdiRXJQ1-17" value="therapy_service" style="edgeLabel;html=1;align=center;verticalAlign=middle;resizable=0;points=[];" vertex="1" connectable="0" parent="kVOWbZ__sYHGqdiRXJQ1-14">
          <mxGeometry x="0.5509" y="-2" relative="1" as="geometry">
            <mxPoint as="offset" />
          </mxGeometry>
        </mxCell>
        <mxCell id="kVOWbZ__sYHGqdiRXJQ1-15" style="edgeStyle=orthogonalEdgeStyle;rounded=0;orthogonalLoop=1;jettySize=auto;html=1;exitX=0.75;exitY=1;exitDx=0;exitDy=0;entryX=1;entryY=0.25;entryDx=0;entryDy=0;" edge="1" parent="1" source="kVOWbZ__sYHGqdiRXJQ1-1" target="kVOWbZ__sYHGqdiRXJQ1-7">
          <mxGeometry relative="1" as="geometry" />
        </mxCell>
        <mxCell id="kVOWbZ__sYHGqdiRXJQ1-18" value="visit_service" style="edgeLabel;html=1;align=center;verticalAlign=middle;resizable=0;points=[];" vertex="1" connectable="0" parent="kVOWbZ__sYHGqdiRXJQ1-15">
          <mxGeometry x="0.6694" y="-2" relative="1" as="geometry">
            <mxPoint as="offset" />
          </mxGeometry>
        </mxCell>
        <mxCell id="kVOWbZ__sYHGqdiRXJQ1-16" style="edgeStyle=orthogonalEdgeStyle;rounded=0;orthogonalLoop=1;jettySize=auto;html=1;exitX=1;exitY=1;exitDx=0;exitDy=0;entryX=1;entryY=0.25;entryDx=0;entryDy=0;" edge="1" parent="1" source="kVOWbZ__sYHGqdiRXJQ1-1" target="kVOWbZ__sYHGqdiRXJQ1-9">
          <mxGeometry relative="1" as="geometry" />
        </mxCell>
        <mxCell id="kVOWbZ__sYHGqdiRXJQ1-19" value="endoscopy_file_service" style="edgeLabel;html=1;align=center;verticalAlign=middle;resizable=0;points=[];" vertex="1" connectable="0" parent="kVOWbZ__sYHGqdiRXJQ1-16">
          <mxGeometry x="0.7316" y="3" relative="1" as="geometry">
            <mxPoint x="30" as="offset" />
          </mxGeometry>
        </mxCell>
        <mxCell id="kVOWbZ__sYHGqdiRXJQ1-22" style="edgeStyle=orthogonalEdgeStyle;rounded=0;orthogonalLoop=1;jettySize=auto;html=1;exitX=0.25;exitY=1;exitDx=0;exitDy=0;entryX=1;entryY=0.75;entryDx=0;entryDy=0;" edge="1" parent="1" source="kVOWbZ__sYHGqdiRXJQ1-1" target="kVOWbZ__sYHGqdiRXJQ1-20">
          <mxGeometry relative="1" as="geometry" />
        </mxCell>
        <mxCell id="kVOWbZ__sYHGqdiRXJQ1-23" value="patient_service" style="edgeLabel;html=1;align=center;verticalAlign=middle;resizable=0;points=[];" vertex="1" connectable="0" parent="kVOWbZ__sYHGqdiRXJQ1-22">
          <mxGeometry x="0.7297" relative="1" as="geometry">
            <mxPoint x="58" as="offset" />
          </mxGeometry>
        </mxCell>
        <mxCell id="kVOWbZ__sYHGqdiRXJQ1-1" value="DataWindow" style="swimlane;fontStyle=1;align=center;verticalAlign=top;childLayout=stackLayout;horizontal=1;startSize=26;horizontalStack=0;resizeParent=1;resizeParentMax=0;resizeLast=0;collapsible=1;marginBottom=0;whiteSpace=wrap;html=1;" vertex="1" collapsed="1" parent="1">
          <mxGeometry x="1040" y="560" width="160" height="30" as="geometry">
            <mxRectangle x="400" y="320" width="160" height="34" as="alternateBounds" />
          </mxGeometry>
        </mxCell>
        <mxCell id="kVOWbZ__sYHGqdiRXJQ1-2" value="" style="line;strokeWidth=1;fillColor=none;align=left;verticalAlign=middle;spacingTop=-1;spacingLeft=3;spacingRight=3;rotatable=0;labelPosition=right;points=[];portConstraint=eastwest;strokeColor=inherit;" vertex="1" parent="kVOWbZ__sYHGqdiRXJQ1-1">
          <mxGeometry y="26" width="160" height="8" as="geometry" />
        </mxCell>
        <mxCell id="kVOWbZ__sYHGqdiRXJQ1-3" style="rounded=0;orthogonalLoop=1;jettySize=auto;html=1;exitX=0.5;exitY=0;exitDx=0;exitDy=0;entryX=1;entryY=0.5;entryDx=0;entryDy=0;" edge="1" parent="1" source="kVOWbZ__sYHGqdiRXJQ1-1">
          <mxGeometry relative="1" as="geometry">
            <mxPoint x="600" y="410" as="targetPoint" />
            <Array as="points">
              <mxPoint x="1120" y="410" />
            </Array>
            <mxPoint x="890" y="581" as="sourcePoint" />
          </mxGeometry>
        </mxCell>
        <mxCell id="kVOWbZ__sYHGqdiRXJQ1-4" value="master_window" style="edgeLabel;html=1;align=center;verticalAlign=middle;resizable=0;points=[];rotation=90;" vertex="1" connectable="0" parent="kVOWbZ__sYHGqdiRXJQ1-3">
          <mxGeometry x="-0.6005" y="1" relative="1" as="geometry">
            <mxPoint x="11" y="33" as="offset" />
          </mxGeometry>
        </mxCell>
        <mxCell id="kVOWbZ__sYHGqdiRXJQ1-29" style="edgeStyle=orthogonalEdgeStyle;rounded=0;orthogonalLoop=1;jettySize=auto;html=1;exitX=0;exitY=0.5;exitDx=0;exitDy=0;entryX=1;entryY=0;entryDx=0;entryDy=0;" edge="1" parent="1" source="kVOWbZ__sYHGqdiRXJQ1-5" target="kVOWbZ__sYHGqdiRXJQ1-24">
          <mxGeometry relative="1" as="geometry" />
        </mxCell>
        <mxCell id="kVOWbZ__sYHGqdiRXJQ1-33" value="db" style="edgeLabel;html=1;align=center;verticalAlign=middle;resizable=0;points=[];" vertex="1" connectable="0" parent="kVOWbZ__sYHGqdiRXJQ1-29">
          <mxGeometry x="0.1911" relative="1" as="geometry">
            <mxPoint as="offset" />
          </mxGeometry>
        </mxCell>
        <mxCell id="kVOWbZ__sYHGqdiRXJQ1-5" value="TherapyService" style="swimlane;fontStyle=1;align=center;verticalAlign=top;childLayout=stackLayout;horizontal=1;startSize=26;horizontalStack=0;resizeParent=1;resizeParentMax=0;resizeLast=0;collapsible=1;marginBottom=0;whiteSpace=wrap;html=1;" vertex="1" collapsed="1" parent="1">
          <mxGeometry x="730" y="890" width="160" height="30" as="geometry">
            <mxRectangle x="400" y="320" width="160" height="34" as="alternateBounds" />
          </mxGeometry>
        </mxCell>
        <mxCell id="kVOWbZ__sYHGqdiRXJQ1-6" value="" style="line;strokeWidth=1;fillColor=none;align=left;verticalAlign=middle;spacingTop=-1;spacingLeft=3;spacingRight=3;rotatable=0;labelPosition=right;points=[];portConstraint=eastwest;strokeColor=inherit;" vertex="1" parent="kVOWbZ__sYHGqdiRXJQ1-5">
          <mxGeometry y="26" width="160" height="8" as="geometry" />
        </mxCell>
        <mxCell id="kVOWbZ__sYHGqdiRXJQ1-30" style="edgeStyle=orthogonalEdgeStyle;rounded=0;orthogonalLoop=1;jettySize=auto;html=1;exitX=0;exitY=0.5;exitDx=0;exitDy=0;entryX=1;entryY=1;entryDx=0;entryDy=0;" edge="1" parent="1" source="kVOWbZ__sYHGqdiRXJQ1-7" target="kVOWbZ__sYHGqdiRXJQ1-24">
          <mxGeometry relative="1" as="geometry" />
        </mxCell>
        <mxCell id="kVOWbZ__sYHGqdiRXJQ1-34" value="db" style="edgeLabel;html=1;align=center;verticalAlign=middle;resizable=0;points=[];" vertex="1" connectable="0" parent="kVOWbZ__sYHGqdiRXJQ1-30">
          <mxGeometry x="0.1914" y="1" relative="1" as="geometry">
            <mxPoint as="offset" />
          </mxGeometry>
        </mxCell>
        <mxCell id="kVOWbZ__sYHGqdiRXJQ1-7" value="VisitService" style="swimlane;fontStyle=1;align=center;verticalAlign=top;childLayout=stackLayout;horizontal=1;startSize=26;horizontalStack=0;resizeParent=1;resizeParentMax=0;resizeLast=0;collapsible=1;marginBottom=0;whiteSpace=wrap;html=1;" vertex="1" collapsed="1" parent="1">
          <mxGeometry x="730" y="950" width="160" height="30" as="geometry">
            <mxRectangle x="400" y="320" width="160" height="34" as="alternateBounds" />
          </mxGeometry>
        </mxCell>
        <mxCell id="kVOWbZ__sYHGqdiRXJQ1-8" value="" style="line;strokeWidth=1;fillColor=none;align=left;verticalAlign=middle;spacingTop=-1;spacingLeft=3;spacingRight=3;rotatable=0;labelPosition=right;points=[];portConstraint=eastwest;strokeColor=inherit;" vertex="1" parent="kVOWbZ__sYHGqdiRXJQ1-7">
          <mxGeometry y="26" width="160" height="8" as="geometry" />
        </mxCell>
        <mxCell id="kVOWbZ__sYHGqdiRXJQ1-31" style="edgeStyle=orthogonalEdgeStyle;rounded=0;orthogonalLoop=1;jettySize=auto;html=1;exitX=0;exitY=0.5;exitDx=0;exitDy=0;entryX=0.75;entryY=1;entryDx=0;entryDy=0;" edge="1" parent="1" source="kVOWbZ__sYHGqdiRXJQ1-9" target="kVOWbZ__sYHGqdiRXJQ1-24">
          <mxGeometry relative="1" as="geometry" />
        </mxCell>
        <mxCell id="kVOWbZ__sYHGqdiRXJQ1-35" value="db" style="edgeLabel;html=1;align=center;verticalAlign=middle;resizable=0;points=[];" vertex="1" connectable="0" parent="kVOWbZ__sYHGqdiRXJQ1-31">
          <mxGeometry x="-0.3308" y="3" relative="1" as="geometry">
            <mxPoint as="offset" />
          </mxGeometry>
        </mxCell>
        <mxCell id="kVOWbZ__sYHGqdiRXJQ1-9" value="EndoscopyFileService" style="swimlane;fontStyle=1;align=center;verticalAlign=top;childLayout=stackLayout;horizontal=1;startSize=26;horizontalStack=0;resizeParent=1;resizeParentMax=0;resizeLast=0;collapsible=1;marginBottom=0;whiteSpace=wrap;html=1;" vertex="1" collapsed="1" parent="1">
          <mxGeometry x="730" y="1000" width="160" height="30" as="geometry">
            <mxRectangle x="400" y="320" width="160" height="34" as="alternateBounds" />
          </mxGeometry>
        </mxCell>
        <mxCell id="kVOWbZ__sYHGqdiRXJQ1-10" value="" style="line;strokeWidth=1;fillColor=none;align=left;verticalAlign=middle;spacingTop=-1;spacingLeft=3;spacingRight=3;rotatable=0;labelPosition=right;points=[];portConstraint=eastwest;strokeColor=inherit;" vertex="1" parent="kVOWbZ__sYHGqdiRXJQ1-9">
          <mxGeometry y="26" width="160" height="8" as="geometry" />
        </mxCell>
        <mxCell id="kVOWbZ__sYHGqdiRXJQ1-12" style="edgeStyle=orthogonalEdgeStyle;rounded=0;orthogonalLoop=1;jettySize=auto;html=1;exitX=0;exitY=1;exitDx=0;exitDy=0;" edge="1" parent="1" source="kVOWbZ__sYHGqdiRXJQ1-1">
          <mxGeometry relative="1" as="geometry">
            <mxPoint x="900" y="600" as="sourcePoint" />
            <mxPoint x="890" y="650" as="targetPoint" />
            <Array as="points">
              <mxPoint x="1040" y="630" />
              <mxPoint x="930" y="630" />
              <mxPoint x="930" y="650" />
            </Array>
          </mxGeometry>
        </mxCell>
        <mxCell id="kVOWbZ__sYHGqdiRXJQ1-13" value="patient_data" style="edgeLabel;html=1;align=center;verticalAlign=middle;resizable=0;points=[];" vertex="1" connectable="0" parent="kVOWbZ__sYHGqdiRXJQ1-12">
          <mxGeometry x="0.1611" y="1" relative="1" as="geometry">
            <mxPoint x="5" as="offset" />
          </mxGeometry>
        </mxCell>
        <mxCell id="kVOWbZ__sYHGqdiRXJQ1-28" style="edgeStyle=orthogonalEdgeStyle;rounded=0;orthogonalLoop=1;jettySize=auto;html=1;exitX=0;exitY=0.5;exitDx=0;exitDy=0;entryX=0.75;entryY=0;entryDx=0;entryDy=0;" edge="1" parent="1" source="kVOWbZ__sYHGqdiRXJQ1-20" target="kVOWbZ__sYHGqdiRXJQ1-24">
          <mxGeometry relative="1" as="geometry" />
        </mxCell>
        <mxCell id="kVOWbZ__sYHGqdiRXJQ1-32" value="db" style="edgeLabel;html=1;align=center;verticalAlign=middle;resizable=0;points=[];" vertex="1" connectable="0" parent="kVOWbZ__sYHGqdiRXJQ1-28">
          <mxGeometry x="-0.1346" y="-1" relative="1" as="geometry">
            <mxPoint as="offset" />
          </mxGeometry>
        </mxCell>
        <mxCell id="kVOWbZ__sYHGqdiRXJQ1-20" value="PatientService" style="swimlane;fontStyle=1;align=center;verticalAlign=top;childLayout=stackLayout;horizontal=1;startSize=26;horizontalStack=0;resizeParent=1;resizeParentMax=0;resizeLast=0;collapsible=1;marginBottom=0;whiteSpace=wrap;html=1;" vertex="1" collapsed="1" parent="1">
          <mxGeometry x="730" y="840" width="160" height="30" as="geometry">
            <mxRectangle x="400" y="320" width="160" height="34" as="alternateBounds" />
          </mxGeometry>
        </mxCell>
        <mxCell id="kVOWbZ__sYHGqdiRXJQ1-21" value="" style="line;strokeWidth=1;fillColor=none;align=left;verticalAlign=middle;spacingTop=-1;spacingLeft=3;spacingRight=3;rotatable=0;labelPosition=right;points=[];portConstraint=eastwest;strokeColor=inherit;" vertex="1" parent="kVOWbZ__sYHGqdiRXJQ1-20">
          <mxGeometry y="26" width="160" height="8" as="geometry" />
        </mxCell>
        <mxCell id="kVOWbZ__sYHGqdiRXJQ1-24" value="Session" style="swimlane;fontStyle=1;align=center;verticalAlign=top;childLayout=stackLayout;horizontal=1;startSize=30;horizontalStack=0;resizeParent=1;resizeParentMax=0;resizeLast=0;collapsible=1;marginBottom=0;whiteSpace=wrap;html=1;" vertex="1" collapsed="1" parent="1">
          <mxGeometry x="480" y="920" width="160" height="30" as="geometry">
            <mxRectangle x="400" y="320" width="160" height="34" as="alternateBounds" />
          </mxGeometry>
        </mxCell>
        <mxCell id="kVOWbZ__sYHGqdiRXJQ1-25" value="" style="line;strokeWidth=1;fillColor=none;align=left;verticalAlign=middle;spacingTop=-1;spacingLeft=3;spacingRight=3;rotatable=0;labelPosition=right;points=[];portConstraint=eastwest;strokeColor=inherit;" vertex="1" parent="kVOWbZ__sYHGqdiRXJQ1-24">
          <mxGeometry y="26" width="160" height="8" as="geometry" />
        </mxCell>
        <mxCell id="kVOWbZ__sYHGqdiRXJQ1-36" value="&lt;font style=&quot;font-size: 18px;&quot;&gt;3drekonstruktionspeiseroehre&lt;/font&gt;" style="html=1;whiteSpace=wrap;" vertex="1" parent="1">
          <mxGeometry x="-827" width="267" height="80" as="geometry" />
        </mxCell>
      </root>
    </mxGraphModel>
  </diagram>
</mxfile>
